<?xml version="1.0" encoding="UTF-8" standalone="no"?>
<!-- Created with Inkscape (http://www.inkscape.org/) -->

<svg
   xmlns:dc="http://purl.org/dc/elements/1.1/"
   xmlns:cc="http://creativecommons.org/ns#"
   xmlns:rdf="http://www.w3.org/1999/02/22-rdf-syntax-ns#"
   xmlns:svg="http://www.w3.org/2000/svg"
   xmlns="http://www.w3.org/2000/svg"
   xmlns:sodipodi="http://sodipodi.sourceforge.net/DTD/sodipodi-0.dtd"
   xmlns:inkscape="http://www.inkscape.org/namespaces/inkscape"
   id="svg2"
   version="1.1"
   inkscape:version="0.47 r22583"
   width="215.3428"
   height="243.44075"
   xml:space="preserve"
   sodipodi:docname="polo_front.svg"
   inkscape:export-filename="/home/balint/Letöltések/polo_front.png"
   inkscape:export-xdpi="18.389284"
   inkscape:export-ydpi="18.389284"><metadata
     id="metadata8"><rdf:RDF><cc:Work
         rdf:about=""><dc:format>image/svg+xml</dc:format><dc:type
           rdf:resource="http://purl.org/dc/dcmitype/StillImage" /><dc:title></dc:title></cc:Work></rdf:RDF></metadata><defs
     id="defs6"><inkscape:perspective
       sodipodi:type="inkscape:persp3d"
       inkscape:vp_x="0 : 0.5 : 1"
       inkscape:vp_y="0 : 1000 : 0"
       inkscape:vp_z="1 : 0.5 : 1"
       inkscape:persp3d-origin="0.5 : 0.33333333 : 1"
       id="perspective10" /><clipPath
       clipPathUnits="userSpaceOnUse"
       id="clipPath18"><path
         d="m 0,595.276 841.89,0 L 841.89,0 0,0 0,595.276 z"
         id="path20" /></clipPath><clipPath
       clipPathUnits="userSpaceOnUse"
       id="clipPath54"><path
         d="m 0,595.276 841.89,0 L 841.89,0 0,0 0,595.276 z"
         id="path56" /></clipPath></defs><sodipodi:namedview
     pagecolor="#517d9d"
     bordercolor="#666666"
     borderopacity="1"
     objecttolerance="10"
     gridtolerance="10"
     guidetolerance="10"
     inkscape:pageopacity="1"
     inkscape:pageshadow="2"
     inkscape:window-width="1280"
     inkscape:window-height="950"
     id="namedview4"
     showgrid="false"
     inkscape:zoom="0.89707474"
     inkscape:cx="-104.13319"
     inkscape:cy="125.94839"
     inkscape:window-x="0"
     inkscape:window-y="25"
     inkscape:window-maximized="1"
     inkscape:current-layer="g12" /><g
     id="g12"
     inkscape:groupmode="layer"
     inkscape:label="polo_front"
     transform="matrix(1.25,0,0,-1.25,-422.65263,532.9871)"><g
       id="g2946"
       style="fill:#234c69;fill-opacity:1;stroke:#234c69;stroke-opacity:1"><g
         transform="translate(346.71718,247.59378)"
         id="g78"
         style="fill:#234c69;fill-opacity:1;stroke:#234c69;stroke-opacity:1"><path
           id="path80"
           style="fill:#234c69;fill-opacity:1;fill-rule:nonzero;stroke:#234c69;stroke-opacity:1"
           d="m 0,0 c -0.125,-0.125 -0.281,-0.258 -0.469,-0.398 -0.187,-0.143 -0.361,-0.29 -0.517,-0.447 -0.187,-0.158 -0.391,-0.344 -0.61,-0.564 l 0,-12.484 -3.332,0 0,32.855 3.193,0 c 0.06,-4.881 0.1,-8.691 0.116,-11.43 0.015,-2.737 0.023,-4.263 0.023,-4.576 0.689,0.563 1.487,1.222 2.394,1.972 0.906,0.75 1.785,1.486 2.629,2.206 0.969,0.814 1.97,1.642 3.004,2.489 l 4.647,0 -8.543,-7.464 10.278,-16.052 -4.083,0 L 0,0 z" /></g><g
         transform="translate(346.71718,247.59378)"
         id="g82"
         style="fill:#234c69;fill-opacity:1;stroke:#234c69;stroke-opacity:1"><path
           id="path84"
           style="fill:#234c69;stroke:#234c69;stroke-width:3;stroke-linecap:butt;stroke-linejoin:miter;stroke-miterlimit:4;stroke-opacity:1;stroke-dasharray:none;fill-opacity:1"
           d="m 0,0 c -0.125,-0.125 -0.281,-0.258 -0.469,-0.398 -0.187,-0.143 -0.361,-0.29 -0.517,-0.447 -0.187,-0.158 -0.391,-0.344 -0.61,-0.564 l 0,-12.484 -3.332,0 0,32.855 3.193,0 c 0.06,-4.881 0.1,-8.691 0.116,-11.43 0.015,-2.737 0.023,-4.263 0.023,-4.576 0.689,0.563 1.487,1.222 2.394,1.972 0.906,0.75 1.785,1.486 2.629,2.206 0.969,0.814 1.97,1.642 3.004,2.489 l 4.647,0 -8.543,-7.464 10.278,-16.052 -4.083,0 L 0,0 z" /></g><path
         id="path86"
         style="fill:#234c69;fill-opacity:1;fill-rule:nonzero;stroke:#234c69;stroke-opacity:1"
         d="m 369.66908,257.16908 3.379,0 0,-23.469 -3.379,0 0,23.469 z m -0.562,7.134 c 0,0.627 0.218,1.158 0.656,1.596 0.437,0.438 0.969,0.657 1.597,0.657 0.625,0 1.157,-0.219 1.595,-0.657 0.438,-0.438 0.658,-0.969 0.658,-1.596 0,-0.627 -0.22,-1.158 -0.658,-1.596 -0.438,-0.438 -0.97,-0.657 -1.595,-0.657 -0.628,0 -1.16,0.219 -1.597,0.657 -0.438,0.438 -0.656,0.969 -0.656,1.596" /><path
         id="path88"
         style="fill:#234c69;stroke:#234c69;stroke-width:3;stroke-linecap:butt;stroke-linejoin:miter;stroke-miterlimit:4;stroke-opacity:1;stroke-dasharray:none;fill-opacity:1"
         d="m 369.66908,257.16908 3.379,0 0,-23.469 -3.379,0 0,23.469 z m -0.562,7.134 c 0,0.627 0.218,1.158 0.656,1.596 0.437,0.438 0.969,0.657 1.597,0.657 0.625,0 1.157,-0.219 1.595,-0.657 0.438,-0.438 0.658,-0.969 0.658,-1.596 0,-0.627 -0.22,-1.158 -0.658,-1.596 -0.438,-0.438 -0.97,-0.657 -1.595,-0.657 -0.628,0 -1.16,0.219 -1.597,0.657 -0.438,0.438 -0.656,0.969 -0.656,1.596 z" /><g
         transform="translate(395.43888,253.78858)"
         id="g90"
         style="fill:#234c69;fill-opacity:1;stroke:#234c69;stroke-opacity:1"><path
           id="path92"
           style="fill:#234c69;fill-opacity:1;fill-rule:nonzero;stroke:#234c69;stroke-opacity:1"
           d="M 0,0 C -0.502,0.157 -0.956,0.275 -1.363,0.354 -1.769,0.43 -2.099,0.47 -2.348,0.47 -3.037,0.47 -3.717,0.376 -4.391,0.189 -5.063,0 -5.656,-0.266 -6.173,-0.61 -6.689,-0.954 -7.112,-1.353 -7.441,-1.805 -7.77,-2.26 -7.934,-2.737 -7.934,-3.239 l 0,-16.849 -3.379,0 0,23.469 2.957,0 0.14,-1.503 c 0.781,0.532 1.698,0.955 2.746,1.267 1.048,0.313 2.027,0.47 2.934,0.47 0.657,0 1.244,-0.055 1.761,-0.165 0.516,-0.109 1.07,-0.242 1.666,-0.399 L 0,0 z" /></g><g
         transform="translate(395.43888,253.78858)"
         id="g94"
         style="fill:#234c69;fill-opacity:1;stroke:#234c69;stroke-opacity:1"><path
           id="path96"
           style="fill:#234c69;stroke:#234c69;stroke-width:3;stroke-linecap:butt;stroke-linejoin:miter;stroke-miterlimit:4;stroke-opacity:1;stroke-dasharray:none;fill-opacity:1"
           d="M 0,0 C -0.502,0.157 -0.956,0.275 -1.363,0.354 -1.769,0.43 -2.099,0.47 -2.348,0.47 -3.037,0.47 -3.717,0.376 -4.391,0.189 -5.063,0 -5.656,-0.266 -6.173,-0.61 -6.689,-0.954 -7.112,-1.353 -7.441,-1.805 -7.77,-2.26 -7.934,-2.737 -7.934,-3.239 l 0,-16.849 -3.379,0 0,23.469 2.957,0 0.14,-1.503 c 0.781,0.532 1.698,0.955 2.746,1.267 1.048,0.313 2.027,0.47 2.934,0.47 0.657,0 1.244,-0.055 1.761,-0.165 0.516,-0.109 1.07,-0.242 1.666,-0.399 L 0,0 z" /></g><path
         id="path98"
         style="fill:#234c69;fill-opacity:1;fill-rule:nonzero;stroke:#234c69;stroke-width:3;stroke-linecap:butt;stroke-linejoin:miter;stroke-miterlimit:4;stroke-opacity:1;stroke-dasharray:none"
         d="m 421.58208,244.07308 -15.396,0 0,3.428 15.396,0 0,-3.428 z" /><g
         transform="translate(447.86658,252.85108)"
         id="g100"
         style="fill:#234c69;fill-opacity:1;stroke:#234c69;stroke-opacity:1"><path
           id="path102"
           style="fill:#234c69;fill-opacity:1;fill-rule:nonzero;stroke:#234c69;stroke-opacity:1"
           d="m 0,0 c -0.501,0.249 -1.144,0.476 -1.925,0.679 -0.782,0.204 -1.596,0.362 -2.439,0.47 -0.847,0.11 -1.699,0.133 -2.56,0.071 -0.86,-0.064 -1.636,-0.258 -2.323,-0.588 -0.689,-0.327 -1.243,-0.813 -1.666,-1.453 -0.422,-0.642 -0.634,-1.48 -0.634,-2.512 l 0,-8.824 c 0,-1.252 0.383,-2.215 1.151,-2.887 0.766,-0.673 1.719,-1.151 2.862,-1.431 1.142,-0.283 2.387,-0.416 3.733,-0.399 1.345,0.015 2.612,0.084 3.801,0.209 L 0,0 z m 3.286,13.705 0,-18.399 0,-14.456 c -1.19,-0.126 -2.457,-0.244 -3.802,-0.352 -1.346,-0.111 -2.669,-0.165 -3.966,-0.165 -1.299,0 -2.529,0.086 -3.685,0.258 -1.158,0.172 -2.129,0.477 -2.911,0.915 -1.251,0.688 -2.205,1.572 -2.861,2.651 -0.659,1.08 -0.987,2.481 -0.987,4.202 l 0,8.45 c 0,1.126 0.203,2.149 0.611,3.073 0.405,0.923 0.953,1.714 1.642,2.37 0.689,0.657 1.493,1.174 2.417,1.55 0.923,0.374 1.916,0.563 2.981,0.563 1.315,0.03 2.628,-0.103 3.942,-0.399 C -2.019,3.667 -0.907,3.379 0,3.097 L 0,4.788 C 0,5.287 0.008,5.858 0.023,6.5 0.038,7.141 0.047,7.791 0.047,8.447 l 0.094,5.258 3.145,0 z" /></g><g
         transform="translate(447.86658,252.85108)"
         id="g104"
         style="fill:#234c69;fill-opacity:1;stroke:#234c69;stroke-opacity:1"><path
           id="path106"
           style="fill:#234c69;stroke:#234c69;stroke-width:3;stroke-linecap:butt;stroke-linejoin:miter;stroke-miterlimit:4;stroke-opacity:1;stroke-dasharray:none;fill-opacity:1"
           d="m 0,0 c -0.501,0.249 -1.144,0.476 -1.925,0.679 -0.782,0.204 -1.596,0.362 -2.439,0.47 -0.847,0.11 -1.699,0.133 -2.56,0.071 -0.86,-0.064 -1.636,-0.258 -2.323,-0.588 -0.689,-0.327 -1.243,-0.813 -1.666,-1.453 -0.422,-0.642 -0.634,-1.48 -0.634,-2.512 l 0,-8.824 c 0,-1.252 0.383,-2.215 1.151,-2.887 0.766,-0.673 1.719,-1.151 2.862,-1.431 1.142,-0.283 2.387,-0.416 3.733,-0.399 1.345,0.015 2.612,0.084 3.801,0.209 L 0,0 z m 3.286,13.705 0,-18.399 0,-14.456 c -1.19,-0.126 -2.457,-0.244 -3.802,-0.352 -1.346,-0.111 -2.669,-0.165 -3.966,-0.165 -1.299,0 -2.529,0.086 -3.685,0.258 -1.158,0.172 -2.129,0.477 -2.911,0.915 -1.251,0.688 -2.205,1.572 -2.861,2.651 -0.659,1.08 -0.987,2.481 -0.987,4.202 l 0,8.45 c 0,1.126 0.203,2.149 0.611,3.073 0.405,0.923 0.953,1.714 1.642,2.37 0.689,0.657 1.493,1.174 2.417,1.55 0.923,0.374 1.916,0.563 2.981,0.563 1.315,0.03 2.628,-0.103 3.942,-0.399 C -2.019,3.667 -0.907,3.379 0,3.097 L 0,4.788 C 0,5.287 0.008,5.858 0.023,6.5 0.038,7.141 0.047,7.791 0.047,8.447 l 0.094,5.258 3.145,0 z" /></g><g
         transform="translate(476.07558,249.70608)"
         id="g108"
         style="fill:#234c69;fill-opacity:1;stroke:#234c69;stroke-opacity:1"><path
           id="path110"
           style="fill:#234c69;fill-opacity:1;fill-rule:nonzero;stroke:#234c69;stroke-opacity:1"
           d="M 0,0 C 0,0.969 -0.188,1.751 -0.563,2.346 -0.938,2.941 -1.393,3.403 -1.924,3.73 -2.457,4.06 -3.004,4.279 -3.567,4.387 -4.13,4.498 -4.616,4.552 -5.022,4.552 -5.585,4.552 -6.181,4.49 -6.805,4.365 -7.433,4.239 -8.003,4.013 -8.519,3.684 -9.035,3.357 -9.466,2.894 -9.81,2.3 -10.154,1.705 -10.326,0.939 -10.326,0 l 0,-4.225 L 0,-3.427 0,0 z M 0.658,6.054 C 1.784,5.147 2.52,4.178 2.863,3.145 3.208,2.112 3.38,0.955 3.38,-0.329 l 0,-6.054 -13.706,-1.033 0,-2.113 c 0,-1.345 0.437,-2.323 1.315,-2.933 0.875,-0.61 1.97,-0.915 3.284,-0.915 1.002,0 2.081,0.155 3.24,0.469 1.157,0.313 2.315,0.781 3.472,1.408 l 1.41,-2.676 c -1.252,-0.75 -2.598,-1.338 -4.038,-1.761 -1.439,-0.42 -2.863,-0.632 -4.271,-0.632 -2.348,0 -4.217,0.548 -5.608,1.643 -1.394,1.094 -2.122,2.894 -2.183,5.397 l 0,9.529 c 0,1.156 0.187,2.213 0.562,3.167 0.375,0.955 0.915,1.769 1.621,2.442 0.704,0.672 1.547,1.188 2.533,1.549 0.986,0.36 2.089,0.539 3.31,0.539 1.188,0 2.378,-0.148 3.568,-0.446 C -0.924,6.954 0,6.554 0.658,6.054" /></g><g
         transform="translate(476.07558,249.70608)"
         id="g112"
         style="fill:#234c69;fill-opacity:1;stroke:#234c69;stroke-opacity:1"><path
           id="path114"
           style="fill:#234c69;stroke:#234c69;stroke-width:3;stroke-linecap:butt;stroke-linejoin:miter;stroke-miterlimit:4;stroke-opacity:1;stroke-dasharray:none;fill-opacity:1"
           d="M 0,0 C 0,0.969 -0.188,1.751 -0.563,2.346 -0.938,2.941 -1.393,3.403 -1.924,3.73 -2.457,4.06 -3.004,4.279 -3.567,4.387 -4.13,4.498 -4.616,4.552 -5.022,4.552 -5.585,4.552 -6.181,4.49 -6.805,4.365 -7.433,4.239 -8.003,4.013 -8.519,3.684 -9.035,3.357 -9.466,2.894 -9.81,2.3 -10.154,1.705 -10.326,0.939 -10.326,0 l 0,-4.225 L 0,-3.427 0,0 z M 0.658,6.054 C 1.784,5.147 2.52,4.178 2.863,3.145 3.208,2.112 3.38,0.955 3.38,-0.329 l 0,-6.054 -13.706,-1.033 0,-2.113 c 0,-1.345 0.437,-2.323 1.315,-2.933 0.875,-0.61 1.97,-0.915 3.284,-0.915 1.002,0 2.081,0.155 3.24,0.469 1.157,0.313 2.315,0.781 3.472,1.408 l 1.41,-2.676 c -1.252,-0.75 -2.598,-1.338 -4.038,-1.761 -1.439,-0.42 -2.863,-0.632 -4.271,-0.632 -2.348,0 -4.217,0.548 -5.608,1.643 -1.394,1.094 -2.122,2.894 -2.183,5.397 l 0,9.529 c 0,1.156 0.187,2.213 0.562,3.167 0.375,0.955 0.915,1.769 1.621,2.442 0.704,0.672 1.547,1.188 2.533,1.549 0.986,0.36 2.089,0.539 3.31,0.539 1.188,0 2.378,-0.148 3.568,-0.446 C -0.924,6.954 0,6.554 0.658,6.054 z" /></g><g
         transform="translate(508.60388,257.16948)"
         id="g116"
         style="fill:#234c69;fill-opacity:1;stroke:#234c69;stroke-opacity:1"><path
           id="path118"
           style="fill:#234c69;fill-opacity:1;fill-rule:nonzero;stroke:#234c69;stroke-opacity:1"
           d="m 0,0 -7.275,-23.469 -4.178,0 L -18.634,0 -14.973,0 -9.341,-18.682 -3.661,0 0,0 z" /></g><g
         transform="translate(508.60388,257.16948)"
         id="g120"
         style="fill:#234c69;fill-opacity:1;stroke:#234c69;stroke-opacity:1"><path
           id="path122"
           style="fill:#234c69;stroke:#234c69;stroke-width:3;stroke-linecap:butt;stroke-linejoin:miter;stroke-miterlimit:4;stroke-opacity:1;stroke-dasharray:none;fill-opacity:1"
           d="m 0,0 -7.275,-23.469 -4.178,0 L -18.634,0 -14.973,0 -9.341,-18.682 -3.661,0 0,0 z" /></g></g><g
       id="g2930"
       style="fill:#234c69;fill-opacity:1"><g
         transform="translate(459.01598,412.37018)"
         id="g58"
         style="fill:#234c69;fill-opacity:1"><path
           id="path60"
           style="fill:#234c69;fill-opacity:1;fill-rule:nonzero;stroke:none"
           d="m 0,0 c 9.701,-0.084 20.03,-2.171 27.576,-8.417 6.195,-5.127 9.519,-11.983 9.747,-18.97 0.229,-6.991 -2.773,-13.291 -8.322,-18.41 -7.543,-6.958 -18.967,-8.894 -29.001,-8.977 -9.024,-0.075 -9.031,-14.075 0,-14 13.901,0.114 27.446,3.481 38.262,12.517 8.413,7.029 13.145,17.99 13.061,28.87 C 51.112,-0.217 24.048,13.792 0,14 -9.031,14.078 -9.023,0.078 0,0" /></g><g
         transform="translate(404.68498,357.78418)"
         id="g62"
         style="fill:#234c69;fill-opacity:1"><path
           id="path64"
           style="fill:#234c69;fill-opacity:1;fill-rule:nonzero;stroke:none"
           d="m 0,0 c -38.824,-0.464 -66.176,-34.955 -66.548,-72.173 -0.091,-9.031 13.91,-9.023 14,0 0.295,29.546 21.393,57.8 52.548,58.173 9.021,0.108 9.033,14.108 0,14" /></g><g
         transform="translate(441.21618,412.38288)"
         id="g66"
         style="fill:#234c69;fill-opacity:1"><path
           id="path68"
           style="fill:#234c69;fill-opacity:1;fill-rule:nonzero;stroke:none"
           d="m 0,0 17.822,0 c 9.029,0 9.029,14 0,14 L 0,14 C -9.029,14 -9.029,0 0,0" /></g><g
         transform="translate(441.29338,343.62158)"
         id="g70"
         style="fill:#234c69;fill-opacity:1"><path
           id="path72"
           style="fill:#234c69;fill-opacity:1;fill-rule:nonzero;stroke:none"
           d="m 0,0 17.822,0 c 9.029,0 9.029,14 0,14 L 0,14 C -9.028,14 -9.028,0 0,0" /></g><g
         transform="translate(416.59708,419.61868)"
         id="g74"
         style="fill:#234c69;fill-opacity:1"><path
           id="path76"
           style="fill:#234c69;fill-opacity:1;fill-rule:nonzero;stroke:none"
           d="m 0,0 0,-133.97 0,-0.01 c 0,-9.027 14,-9.027 14,0 L 14,-0.01 14,0 C 14,9.028 0,9.028 0,0" /></g><g
         transform="translate(338.12248,419.60108)"
         id="g124"
         style="fill:#234c69;fill-opacity:1"><path
           id="path126"
           style="fill:#234c69;fill-opacity:1;fill-rule:nonzero;stroke:none"
           d="m 0,0 c 0.346,-37.551 26.422,-75.083 66.547,-75.575 9.033,-0.111 9.021,13.889 0,14 C 34.148,-61.178 14.275,-29.824 14,0 13.916,9.023 -0.084,9.031 0,0" /></g><g
         transform="translate(510.39588,285.60358)"
         id="g128"
         style="fill:#234c69;fill-opacity:1"><path
           id="path130"
           style="fill:#234c69;fill-opacity:1;fill-rule:nonzero;stroke:none"
           d="m 0,0 c -0.396,38.36 -30.077,71.534 -69.225,71.975 -9.032,0.102 -9.022,-13.898 0,-14 C -37.715,57.621 -14.317,30.721 -14,0 -13.906,-9.021 0.094,-9.031 0,0" /></g></g></g></svg>